<?xml version="1.0" encoding="UTF-8" standalone="no"?><!DOCTYPE svg PUBLIC "-//W3C//DTD SVG 1.1//EN" "http://www.w3.org/Graphics/SVG/1.1/DTD/svg11.dtd"><svg width="100%" height="100%" viewBox="0 0 232 221" version="1.1" xmlns="http://www.w3.org/2000/svg" xmlns:xlink="http://www.w3.org/1999/xlink" xml:space="preserve" xmlns:serif="http://www.serif.com/" style="fill-rule:evenodd;clip-rule:evenodd;stroke-linejoin:round;stroke-miterlimit:2;"><path d="M0.116,116.895c-2.068,38.868 23.725,77.5 59.877,91.44c0,0 15.899,7.305 37.024,11.304c26.222,4.965 38.162,-9.437 38.162,-9.437c2.253,-1.327 5.566,-5.144 7.389,-7.074c6.592,-6.973 13.834,-19.822 25.357,-15.702c1.202,0.43 2.379,0.981 3.428,1.709c0,0 8.552,5.345 13.389,5.686c4.89,0.345 11.571,-0.371 15.952,-3.617c5.547,-4.109 12.811,-14.091 17.328,-21.039c4.105,-6.315 7.606,-13.133 9.776,-20.652c2.372,-8.217 3.611,-20.998 3.898,-29.213c0.239,-6.855 -0.554,-13.762 -1.477,-20.709c-0.938,-7.067 -2.404,-14.92 -5.064,-21.833c-3.196,-8.305 -9.343,-19.407 -14.741,-28.412c-5.171,-8.625 -12.405,-18.493 -18.628,-25.757c-5.973,-6.97 -19.833,-19.014 -19.833,-19.014c0,0 -6.265,-4.625 -14.299,-4.575c-8.408,0.054 -13.181,4.575 -13.181,4.575c0,0 -6.84,5.88 -7.92,16.56c-1.783,9.3 -3.477,18.616 -5.329,27.902c-0.63,3.16 -1.305,6.314 -2.117,9.432c-1.574,6.042 -3.579,13.245 -9.673,16.222c-6.297,3.075 -13.748,2.48 -20.358,1.102c-10.536,-2.197 -20.542,-6.35 -31.199,-8.104c-10.451,-1.721 -21.199,-1.678 -31.386,1.45c-20.74,6.369 -34.878,26.358 -36.375,47.756" style="fill:#f0f1f3;fill-rule:nonzero;"/></svg>